<svg width="4304" height="2265" xmlns="http://www.w3.org/2000/svg" xmlns:xlink="http://www.w3.org/1999/xlink" xml:space="preserve" overflow="hidden"><defs><linearGradient x1="332.5" y1="1294.5" x2="332.5" y2="1543.5" gradientUnits="userSpaceOnUse" spreadMethod="reflect" id="fill0"><stop offset="0" stop-color="#9CAFBF" stop-opacity="1"/><stop offset="0.5" stop-color="#8FA3B4" stop-opacity="1"/><stop offset="1" stop-color="#7A95AB" stop-opacity="1"/></linearGradient></defs><g transform="translate(-41 -100)"><g><path d="M47.4999 1336C47.4999 1313.08 66.0805 1294.5 89.0007 1294.5L575.999 1294.5C598.919 1294.5 617.5 1313.08 617.5 1336L617.5 1502C617.5 1524.92 598.919 1543.5 575.999 1543.5L89.0007 1543.5C66.0805 1543.5 47.4999 1524.92 47.4999 1502Z" stroke="#156082" stroke-width="4.58333" stroke-linecap="butt" stroke-linejoin="miter" stroke-miterlimit="8" stroke-opacity="1" fill="url(#fill0)" fill-rule="evenodd"/><text fill="#000000" fill-opacity="1" font-family="Aptos,Aptos_MSFontService,sans-serif" font-style="normal" font-variant="normal" font-weight="400" font-stretch="normal" font-size="83" text-anchor="start" direction="ltr" writing-mode="lr-tb" unicode-bidi="normal" text-decoration="none" transform="matrix(1 0 0 1 132.03 1396)">Projetos de </text><text fill="#000000" fill-opacity="1" font-family="Aptos,Aptos_MSFontService,sans-serif" font-style="normal" font-variant="normal" font-weight="400" font-stretch="normal" font-size="83" text-anchor="start" direction="ltr" writing-mode="lr-tb" unicode-bidi="normal" text-decoration="none" transform="matrix(1 0 0 1 169.934 1495)">Pesquisa</text><text fill="#000000" fill-opacity="1" font-family="Aptos,Aptos_MSFontService,sans-serif" font-style="normal" font-variant="normal" font-weight="400" font-stretch="normal" font-size="83" text-anchor="start" direction="ltr" writing-mode="lr-tb" unicode-bidi="normal" text-decoration="none" transform="matrix(1 0 0 1 773.661 864)">Inteligência </text><text fill="#000000" fill-opacity="1" font-family="Aptos,Aptos_MSFontService,sans-serif" font-style="normal" font-variant="normal" font-weight="400" font-stretch="normal" font-size="83" text-anchor="start" direction="ltr" writing-mode="lr-tb" unicode-bidi="normal" text-decoration="none" transform="matrix(1 0 0 1 702.551 963)">Computacional</text><text fill="#000000" fill-opacity="1" font-family="Aptos,Aptos_MSFontService,sans-serif" font-style="normal" font-variant="normal" font-weight="400" font-stretch="normal" font-size="83" text-anchor="start" direction="ltr" writing-mode="lr-tb" unicode-bidi="normal" text-decoration="none" transform="matrix(1 0 0 1 801.127 2224)">Educação</text><text fill="#000000" fill-opacity="1" font-family="Aptos,Aptos_MSFontService,sans-serif" font-style="normal" font-variant="normal" font-weight="400" font-stretch="normal" font-size="55" text-anchor="start" direction="ltr" writing-mode="lr-tb" unicode-bidi="normal" text-decoration="none" transform="matrix(1 0 0 1 1495.8 364)">Data </text><text fill="#000000" fill-opacity="1" font-family="Aptos,Aptos_MSFontService,sans-serif" font-style="normal" font-variant="normal" font-weight="400" font-stretch="normal" font-size="55" text-anchor="start" direction="ltr" writing-mode="lr-tb" unicode-bidi="normal" text-decoration="none" transform="matrix(1 0 0 1 1620.54 364)">Centric</text><text fill="#000000" fill-opacity="1" font-family="Aptos,Aptos_MSFontService,sans-serif" font-style="normal" font-variant="normal" font-weight="400" font-stretch="normal" font-size="55" text-anchor="start" direction="ltr" writing-mode="lr-tb" unicode-bidi="normal" text-decoration="none" transform="matrix(1 0 0 1 1807.31 364)">AI</text><text fill="#000000" fill-opacity="1" font-family="Aptos,Aptos_MSFontService,sans-serif" font-style="normal" font-variant="normal" font-weight="400" font-stretch="normal" font-size="55" text-anchor="start" direction="ltr" writing-mode="lr-tb" unicode-bidi="normal" text-decoration="none" transform="matrix(1 0 0 1 1578.41 632)">Aprendizado </text><text fill="#000000" fill-opacity="1" font-family="Aptos,Aptos_MSFontService,sans-serif" font-style="normal" font-variant="normal" font-weight="400" font-stretch="normal" font-size="55" text-anchor="start" direction="ltr" writing-mode="lr-tb" unicode-bidi="normal" text-decoration="none" transform="matrix(1 0 0 1 1471.21 698)">Semissupervisionado</text><text fill="#000000" fill-opacity="1" font-family="Aptos,Aptos_MSFontService,sans-serif" font-style="normal" font-variant="normal" font-weight="400" font-stretch="normal" font-size="55" text-anchor="start" direction="ltr" writing-mode="lr-tb" unicode-bidi="normal" text-decoration="none" transform="matrix(1 0 0 1 1601.14 1027)">Séries </text><text fill="#000000" fill-opacity="1" font-family="Aptos,Aptos_MSFontService,sans-serif" font-style="normal" font-variant="normal" font-weight="400" font-stretch="normal" font-size="55" text-anchor="start" direction="ltr" writing-mode="lr-tb" unicode-bidi="normal" text-decoration="none" transform="matrix(1 0 0 1 1552.3 1093)">Temporais</text><text fill="#000000" fill-opacity="1" font-family="Aptos,Aptos_MSFontService,sans-serif" font-style="normal" font-variant="normal" font-weight="400" font-stretch="normal" font-size="55" text-anchor="start" direction="ltr" writing-mode="lr-tb" unicode-bidi="normal" text-decoration="none" transform="matrix(1 0 0 1 1563.87 1693)">Modelos </text><text fill="#000000" fill-opacity="1" font-family="Aptos,Aptos_MSFontService,sans-serif" font-style="normal" font-variant="normal" font-weight="400" font-stretch="normal" font-size="55" text-anchor="start" direction="ltr" writing-mode="lr-tb" unicode-bidi="normal" text-decoration="none" transform="matrix(1 0 0 1 1523.95 1759)">Generativos</text><text fill="#000000" fill-opacity="1" font-family="Aptos,Aptos_MSFontService,sans-serif" font-style="normal" font-variant="normal" font-weight="400" font-stretch="normal" font-size="55" text-anchor="start" direction="ltr" writing-mode="lr-tb" unicode-bidi="normal" text-decoration="none" transform="matrix(1 0 0 1 1499.94 1883)">Aplicações em </text><text fill="#000000" fill-opacity="1" font-family="Aptos,Aptos_MSFontService,sans-serif" font-style="normal" font-variant="normal" font-weight="400" font-stretch="normal" font-size="55" text-anchor="start" direction="ltr" writing-mode="lr-tb" unicode-bidi="normal" text-decoration="none" transform="matrix(1 0 0 1 1537.89 1949)">Automação</text><path d="M0.0676183-3.43684 30.7898-2.83239 61.5164-1.04074 92.1194 1.89825 122.539 5.94617 152.716 11.0646 182.591 17.2154 212.103 24.3602 241.194 32.4609 269.805 41.4794 297.875 51.3777 325.344 62.1178 352.155 73.6619 378.247 85.9722 403.56 99.0111 428.035 112.741 451.612 127.124 474.233 142.123 495.837 157.702 516.364 173.822 535.756 190.447 553.951 207.54 570.891 225.066 586.514 242.987 600.759 261.267 613.55 279.849 619.409 289.283 624.871 298.763 629.942 308.306 634.615 317.907 638.881 327.562 642.732 337.266 646.161 347.014 649.159 356.803 651.718 366.625 653.83 376.478 655.497 386.416 656.044 392.93 649.193 393.505 648.658 387.133 648.694 387.414 647.063 377.691 647.092 377.843 645.012 368.14 645.046 368.286 642.524 358.606 642.564 358.746 639.608 349.095 639.652 349.229 636.269 339.611 636.317 339.739 632.515 330.159 632.566 330.28 628.352 320.744 628.405 320.859 623.787 311.369 623.843 311.478 618.828 302.041 618.885 302.144 613.481 292.765 613.539 292.862 607.753 283.544 607.842 283.68 595.154 265.249 595.274 265.413 581.149 247.287 581.269 247.433 565.766 229.65 565.886 229.78 549.066 212.378 549.184 212.494 531.106 195.511 531.222 195.615 511.946 179.089 512.06 179.183 491.646 163.152 491.759 163.237 470.267 147.739 470.377 147.816 447.867 132.89 447.977 132.959 424.508 118.643 424.616 118.706 400.249 105.037 400.357 105.095 375.151 92.1115 375.259 92.1644 349.275 79.9047 349.382 79.9531 322.679 68.4553 322.787 68.4996 295.425 57.8018 295.534 57.8421 267.573 47.9823 267.683 48.0189 239.183 39.0353 239.294 39.0683 210.315 30.9989 210.429 31.0284 181.03 23.9113 181.146 23.9372 151.389 17.8106 151.507 17.8328 121.45 12.7346 121.571 12.753 91.2748 8.72147 91.3996 8.73576 60.9234 5.80893 61.0519 5.81884 30.4558 4.03481 30.5883 4.03998-0.0676183 3.43684ZM666.018 387.693 654.206 416.079 638.584 389.598Z" fill="#156082" fill-rule="nonzero" fill-opacity="1" transform="matrix(1.83697e-16 1 1 -1.83697e-16 332.5 1543.5)"/><path d="M329.064 1295.25 329.52 1276.06 330.874 1256.83 333.096 1237.68 336.156 1218.64 340.024 1199.76 344.672 1181.07 350.071 1162.61 356.192 1144.42 363.005 1126.53 370.482 1108.97 378.595 1091.8 387.315 1075.03 396.613 1058.72 406.461 1042.89 416.831 1027.59 427.694 1012.85 439.022 998.709 450.788 985.203 462.962 972.369 475.519 960.246 488.428 948.87 501.664 938.28 515.199 928.513 529.004 919.608 543.053 911.602 557.317 904.535 571.769 898.446 586.381 893.374 601.125 889.359 616.02 886.432 622.688 885.835 623.301 892.683 616.813 893.264 617.169 893.213 602.572 896.081 602.812 896.025 588.301 899.977 588.525 899.908 574.129 904.905 574.336 904.825 560.083 910.83 560.275 910.743 546.194 917.719 546.37 917.625 532.49 925.534 532.651 925.436 519.001 934.242 519.149 934.141 505.757 943.805 505.893 943.702 492.787 954.187 492.912 954.082 480.123 965.352 480.238 965.246 467.792 977.263 467.898 977.156 455.826 989.881 455.924 989.773 444.253 1003.17 444.344 1003.06 433.103 1017.1 433.187 1016.99 422.406 1031.62 422.484 1031.51 412.19 1046.7 412.263 1046.58 402.485 1062.3 402.553 1062.18 393.32 1078.38 393.384 1078.26 384.725 1094.91 384.783 1094.79 376.727 1111.85 376.781 1111.73 369.356 1129.16 369.406 1129.04 362.641 1146.8 362.686 1146.68 356.609 1164.74 356.65 1164.61 351.291 1182.94 351.327 1182.8 346.713 1201.35 346.745 1201.21 342.906 1219.95 342.932 1219.81 339.896 1238.69 339.917 1238.54 337.712 1257.54 337.727 1257.39 336.383 1276.46 336.391 1276.3 335.937 1295.41ZM617.37 875.901 645.844 887.5 619.48 903.32Z" fill="#156082" fill-rule="nonzero" fill-opacity="1"/><text fill="#215F9A" fill-opacity="1" font-family="Aptos,Aptos_MSFontService,sans-serif" font-style="normal" font-variant="normal" font-weight="700" font-stretch="normal" font-size="64" text-anchor="start" direction="ltr" writing-mode="lr-tb" unicode-bidi="normal" text-decoration="none" transform="matrix(1 0 0 1 1593.58 2185)">Estratégias Eficientes de Aprendizado e Gerenciamento d</text><text fill="#215F9A" fill-opacity="1" font-family="Aptos,Aptos_MSFontService,sans-serif" font-style="normal" font-variant="normal" font-weight="700" font-stretch="normal" font-size="64" text-anchor="start" direction="ltr" writing-mode="lr-tb" unicode-bidi="normal" text-decoration="none" transform="matrix(1 0 0 1 3258.09 2185)">o </text><text fill="#215F9A" fill-opacity="1" font-family="Aptos,Aptos_MSFontService,sans-serif" font-style="normal" font-variant="normal" font-weight="700" font-stretch="normal" font-size="64" text-anchor="start" direction="ltr" writing-mode="lr-tb" unicode-bidi="normal" text-decoration="none" transform="matrix(1 0 0 1 3307.93 2185)">Tempo </text><text fill="#215F9A" fill-opacity="1" font-family="Aptos,Aptos_MSFontService,sans-serif" font-style="normal" font-variant="normal" font-weight="700" font-stretch="normal" font-size="55" text-anchor="start" direction="ltr" writing-mode="lr-tb" unicode-bidi="normal" text-decoration="none" transform="matrix(1 0 0 1 1593.58 2254)">(aprovado Edital IFPB Interconecta 2024 </text><text fill="#215F9A" fill-opacity="1" font-family="Aptos,Aptos_MSFontService,sans-serif" font-style="normal" font-variant="normal" font-weight="700" font-stretch="normal" font-size="55" text-anchor="start" direction="ltr" writing-mode="lr-tb" unicode-bidi="normal" text-decoration="none" transform="matrix(1 0 0 1 2595.29 2254)">-</text><text fill="#215F9A" fill-opacity="1" font-family="Aptos,Aptos_MSFontService,sans-serif" font-style="normal" font-variant="normal" font-weight="700" font-stretch="normal" font-size="55" text-anchor="start" direction="ltr" writing-mode="lr-tb" unicode-bidi="normal" text-decoration="none" transform="matrix(1 0 0 1 2625.66 2254)">em seleção de aluno bolsista)</text><path d="M1212.5 2195.06 1245.02 2195.07 1260.96 2195.09 1276.52 2195.11 1291.57 2195.13 1305.98 2195.16 1319.62 2195.19 1332.37 2195.23 1344.1 2195.26 1354.67 2195.31 1363.98 2195.35 1368.11 2195.37 1371.88 2195.39 1375.26 2195.42 1378.25 2195.44 1380.82 2195.46 1382.96 2195.49 1384.67 2195.51 1385.93 2195.54 1386.81 2195.57 1387.17 2195.6 1387.42 2195.63 1387.2 2195.61 1387.95 2195.64 1387.91 2195.64 1389.13 2195.66 1389.12 2195.66 1390.8 2195.68 1392.93 2195.71 1395.49 2195.73 1398.47 2195.76 1401.85 2195.78 1405.61 2195.8 1409.74 2195.82 1419.03 2195.87 1429.61 2195.91 1441.33 2195.95 1454.08 2195.98 1467.72 2196.01 1482.12 2196.04 1497.17 2196.06 1512.72 2196.08 1528.66 2196.1 1538.26 2196.1 1538.26 2202.98 1528.66 2202.97 1512.72 2202.96 1497.16 2202.94 1482.11 2202.92 1467.7 2202.89 1454.06 2202.86 1441.31 2202.82 1429.58 2202.78 1419 2202.74 1409.7 2202.7 1405.57 2202.68 1401.8 2202.65 1398.41 2202.63 1395.43 2202.61 1392.85 2202.58 1390.71 2202.56 1389.01 2202.53 1387.75 2202.51 1386.87 2202.48 1386.51 2202.45 1386.25 2202.42 1386.47 2202.43 1385.73 2202.41 1385.77 2202.41 1384.54 2202.39 1384.56 2202.39 1382.88 2202.36 1380.76 2202.34 1378.19 2202.32 1375.21 2202.29 1371.84 2202.27 1368.07 2202.25 1363.95 2202.22 1354.65 2202.18 1344.07 2202.14 1332.35 2202.1 1319.6 2202.07 1305.96 2202.03 1291.56 2202.01 1276.51 2201.98 1260.96 2201.96 1245.02 2201.95 1212.5 2201.94ZM1533.68 2185.79 1561.18 2199.55 1533.67 2213.29Z" fill="#196B24" fill-rule="nonzero" fill-opacity="1"/><path d="M22.9167-3.4375 45.9289-3.4375 50.4167-3.4375 50.4167 3.4375 45.9289 3.4375 22.9167 3.4375ZM71.0417-3.4375 91.4984-3.4375 98.5417-3.4375 98.5417 3.4375 91.4984 3.4375 71.0417 3.4375ZM119.167-3.4375 136.349-3.4375 146.667-3.4375 146.667 3.4375 136.349 3.4375 119.167 3.4375ZM167.292-3.4375 180.123-3.43749 194.792-3.43749 194.792 3.43751 180.123 3.43751 167.292 3.4375ZM215.417-3.43749 222.458-3.43749 242.917-3.43749 242.917 3.43751 222.458 3.43751 215.417 3.43751ZM263.542-3.43748 282.482-3.43748 291.042-3.43747 291.042 3.43753 282.482 3.43752 263.542 3.43752ZM311.667-3.43747 319.653-3.43746 337.251-3.43745 339.167-3.43745 339.167 3.43755 337.251 3.43755 319.653 3.43754 311.667 3.43753ZM359.792-3.43744 370.245-3.43744 385.552-3.43742 387.292-3.43742 387.292 3.43758 385.552 3.43758 370.245 3.43756 359.792 3.43756ZM407.917-3.4374 413.562-3.4374 426.174-3.43738 435.417-3.43737 435.417 3.43763 426.174 3.43762 413.562 3.4376 407.917 3.4376ZM456.042-3.43733 457.904-3.43733 466.294-3.43731 473.518-3.43728 479.528-3.43726 483.542-3.43724 483.542 3.43776 479.528 3.43774 473.518 3.43772 466.294 3.43769 457.904 3.43767 456.042 3.43767ZM504.167-3.43714 507.575-3.43714 514.798-3.43714 523.189-3.43714 531.667-3.43714 531.667 3.43786 523.189 3.43786 514.798 3.43786 507.575 3.43786 504.167 3.43786ZM552.292-3.43714 554.918-3.43714 567.531-3.43714 579.792-3.43714 579.792 3.43786 567.531 3.43786 554.918 3.43786 552.292 3.43786ZM600.417-3.43714 610.847-3.43714 626.963-3.43714 627.917-3.43714 627.917 3.43786 626.963 3.43786 610.847 3.43786 600.417 3.43786ZM648.542-3.43714 661.44-3.43714 676.042-3.43714 676.042 3.43786 661.44 3.43786 648.542 3.43786ZM696.667-3.43714 698.611-3.43714 718.095-3.43714 724.167-3.43714 724.167 3.43786 718.095 3.43786 698.611 3.43786 696.667 3.43786ZM744.792-3.43714 758.634-3.43714 772.292-3.43714 772.292 3.43786 758.634 3.43786 744.792 3.43786ZM792.917-3.43714 800.97-3.43714 820.417-3.43714 820.417 3.43786 800.97 3.43786 792.917 3.43786ZM841.042-3.43714 844.743-3.43714 868.542-3.43714 868.542 3.43786 844.743 3.43786 841.042 3.43786ZM889.167-3.43714 889.594-3.43714 916.667-3.43714 916.667 3.43786 889.594 3.43786 889.167 3.43786ZM937.292-3.43714 958.176-3.43714 958.176 3.43786 937.292 3.43786ZM27.5 13.75 0 0 27.5-13.75ZM953.592-13.7496 981.092 0.000360892 953.592 13.7504Z" fill="#000000" fill-rule="nonzero" fill-opacity="1" transform="matrix(-1.83697e-16 -1 -1 1.83697e-16 980.5 2033.59)"/><path d="M1492.5 1984.5C1443.62 1984.5 1404 1977.9 1404 1969.75L1404 903.887C1404 895.741 1364.38 889.138 1315.5 889.138 1364.38 889.138 1404 882.534 1404 874.388L1404 173.249C1404 165.104 1443.62 158.5 1492.5 158.5" stroke="#196B24" stroke-width="6.875" stroke-linecap="butt" stroke-linejoin="miter" stroke-miterlimit="8" stroke-opacity="1" fill="none" fill-rule="evenodd"/><text fill="#215F9A" fill-opacity="1" font-family="Aptos,Aptos_MSFontService,sans-serif" font-style="normal" font-variant="normal" font-weight="700" font-stretch="normal" font-size="64" text-anchor="start" direction="ltr" writing-mode="lr-tb" unicode-bidi="normal" text-decoration="none" transform="matrix(1 0 0 1 2176.04 1885)">IA para automação de ambiente educacional</text><text fill="#215F9A" fill-opacity="1" font-family="Aptos,Aptos_MSFontService,sans-serif" font-style="normal" font-variant="normal" font-weight="700" font-stretch="normal" font-size="55" text-anchor="start" direction="ltr" writing-mode="lr-tb" unicode-bidi="normal" text-decoration="none" transform="matrix(1 0 0 1 2176.04 1954)">(aprovado Edital IFPB Interconecta 2024 </text><text fill="#215F9A" fill-opacity="1" font-family="Aptos,Aptos_MSFontService,sans-serif" font-style="normal" font-variant="normal" font-weight="700" font-stretch="normal" font-size="55" text-anchor="start" direction="ltr" writing-mode="lr-tb" unicode-bidi="normal" text-decoration="none" transform="matrix(1 0 0 1 3177.75 1954)">-</text><text fill="#215F9A" fill-opacity="1" font-family="Aptos,Aptos_MSFontService,sans-serif" font-style="normal" font-variant="normal" font-weight="700" font-stretch="normal" font-size="55" text-anchor="start" direction="ltr" writing-mode="lr-tb" unicode-bidi="normal" text-decoration="none" transform="matrix(1 0 0 1 3208.12 1954)">em seleção de aluno bolsista)</text><text fill="#78206E" fill-opacity="1" font-family="Aptos,Aptos_MSFontService,sans-serif" font-style="normal" font-variant="normal" font-weight="700" font-stretch="normal" font-size="64" text-anchor="start" direction="ltr" writing-mode="lr-tb" unicode-bidi="normal" text-decoration="none" transform="matrix(1 0 0 1 2174.02 1662)">Interação </text><text fill="#78206E" fill-opacity="1" font-family="Aptos,Aptos_MSFontService,sans-serif" font-style="normal" font-variant="normal" font-weight="700" font-stretch="normal" font-size="64" text-anchor="start" direction="ltr" writing-mode="lr-tb" unicode-bidi="normal" text-decoration="none" transform="matrix(1 0 0 1 2465.18 1662)">humano robô </text><text fill="#78206E" fill-opacity="1" font-family="Aptos,Aptos_MSFontService,sans-serif" font-style="normal" font-variant="normal" font-weight="700" font-stretch="normal" font-size="64" text-anchor="start" direction="ltr" writing-mode="lr-tb" unicode-bidi="normal" text-decoration="none" transform="matrix(1 0 0 1 2866.66 1662)">-</text><text fill="#78206E" fill-opacity="1" font-family="Aptos,Aptos_MSFontService,sans-serif" font-style="normal" font-variant="normal" font-weight="700" font-stretch="normal" font-size="64" text-anchor="start" direction="ltr" writing-mode="lr-tb" unicode-bidi="normal" text-decoration="none" transform="matrix(1 0 0 1 2901.61 1662)">Nova:</text><text fill="#78206E" fill-opacity="1" font-family="Aptos,Aptos_MSFontService,sans-serif" font-style="normal" font-variant="normal" font-weight="700" font-stretch="normal" font-size="64" text-anchor="start" direction="ltr" writing-mode="lr-tb" unicode-bidi="normal" text-decoration="none" transform="matrix(1 0 0 1 3096.24 1662)">LLM </text><text fill="#78206E" fill-opacity="1" font-family="Aptos,Aptos_MSFontService,sans-serif" font-style="normal" font-variant="normal" font-weight="700" font-stretch="normal" font-size="64" text-anchor="start" direction="ltr" writing-mode="lr-tb" unicode-bidi="normal" text-decoration="none" transform="matrix(1 0 0 1 3227.43 1662)">Narradora de jogos</text><text fill="#78206E" fill-opacity="1" font-family="Aptos,Aptos_MSFontService,sans-serif" font-style="normal" font-variant="normal" font-weight="700" font-stretch="normal" font-size="55" text-anchor="start" direction="ltr" writing-mode="lr-tb" unicode-bidi="normal" text-decoration="none" transform="matrix(1 0 0 1 2174.02 1731)">(Coorientação Mestrado Nathália </text><text fill="#78206E" fill-opacity="1" font-family="Aptos,Aptos_MSFontService,sans-serif" font-style="normal" font-variant="normal" font-weight="700" font-stretch="normal" font-size="55" text-anchor="start" direction="ltr" writing-mode="lr-tb" unicode-bidi="normal" text-decoration="none" transform="matrix(1 0 0 1 3013.81 1731)">Cauás</text><text fill="#78206E" fill-opacity="1" font-family="Aptos,Aptos_MSFontService,sans-serif" font-style="normal" font-variant="normal" font-weight="700" font-stretch="normal" font-size="55" text-anchor="start" direction="ltr" writing-mode="lr-tb" unicode-bidi="normal" text-decoration="none" transform="matrix(1 0 0 1 3185.68 1731)">PPGEC/POLI/</text><text fill="#78206E" fill-opacity="1" font-family="Aptos,Aptos_MSFontService,sans-serif" font-style="normal" font-variant="normal" font-weight="700" font-stretch="normal" font-size="55" text-anchor="start" direction="ltr" writing-mode="lr-tb" unicode-bidi="normal" text-decoration="none" transform="matrix(1 0 0 1 3522.03 1731)">UPE </text><text fill="#78206E" fill-opacity="1" font-family="Aptos,Aptos_MSFontService,sans-serif" font-style="normal" font-variant="normal" font-weight="700" font-stretch="normal" font-size="55" text-anchor="start" direction="ltr" writing-mode="lr-tb" unicode-bidi="normal" text-decoration="none" transform="matrix(1 0 0 1 3636.61 1731)">–</text><text fill="#78206E" fill-opacity="1" font-family="Aptos,Aptos_MSFontService,sans-serif" font-style="normal" font-variant="normal" font-weight="700" font-stretch="normal" font-size="55" text-anchor="start" direction="ltr" writing-mode="lr-tb" unicode-bidi="normal" text-decoration="none" transform="matrix(1 0 0 1 3673.28 1731)">orientação prof. Bruno </text><text fill="#78206E" fill-opacity="1" font-family="Aptos,Aptos_MSFontService,sans-serif" font-style="normal" font-variant="normal" font-weight="700" font-stretch="normal" font-size="55" text-anchor="start" direction="ltr" writing-mode="lr-tb" unicode-bidi="normal" text-decoration="none" transform="matrix(1 0 0 1 2174.02 1797)">Fernandes)</text><text fill="#000000" fill-opacity="1" font-family="Aptos,Aptos_MSFontService,sans-serif" font-style="normal" font-variant="normal" font-weight="400" font-stretch="normal" font-size="55" text-anchor="start" direction="ltr" writing-mode="lr-tb" unicode-bidi="normal" text-decoration="none" transform="matrix(1 0 0 1 1543.14 1395)">Aplicações </text><text fill="#000000" fill-opacity="1" font-family="Aptos,Aptos_MSFontService,sans-serif" font-style="normal" font-variant="normal" font-weight="400" font-stretch="normal" font-size="55" text-anchor="start" direction="ltr" writing-mode="lr-tb" unicode-bidi="normal" text-decoration="none" transform="matrix(1 0 0 1 1535.83 1461)">em Biologia</text><text fill="#000000" fill-opacity="1" font-family="Aptos,Aptos_MSFontService,sans-serif" font-style="normal" font-variant="normal" font-weight="400" font-stretch="normal" font-size="64" text-anchor="start" direction="ltr" writing-mode="lr-tb" unicode-bidi="normal" text-decoration="none" transform="matrix(1 0 0 1 2174.02 1308)">Estratégias de Processamento Digital de Imagens para análise do estado de</text><text fill="#000000" fill-opacity="1" font-family="Aptos,Aptos_MSFontService,sans-serif" font-style="normal" font-variant="normal" font-weight="400" font-stretch="normal" font-size="64" text-anchor="start" direction="ltr" writing-mode="lr-tb" unicode-bidi="normal" text-decoration="none" transform="matrix(1 0 0 1 2174.02 1385)">maturação de frutas </text><text fill="#000000" fill-opacity="1" font-family="Aptos,Aptos_MSFontService,sans-serif" font-style="normal" font-variant="normal" font-weight="400" font-stretch="normal" font-size="55" text-anchor="start" direction="ltr" writing-mode="lr-tb" unicode-bidi="normal" text-decoration="none" transform="matrix(1 0 0 1 2748.43 1385)">(projeto a ser </text><text fill="#000000" fill-opacity="1" font-family="Aptos,Aptos_MSFontService,sans-serif" font-style="normal" font-variant="normal" font-weight="400" font-stretch="normal" font-size="55" text-anchor="start" direction="ltr" writing-mode="lr-tb" unicode-bidi="normal" text-decoration="none" transform="matrix(1 0 0 1 3071.67 1385)">iniciado </text><text fill="#000000" fill-opacity="1" font-family="Aptos,Aptos_MSFontService,sans-serif" font-style="normal" font-variant="normal" font-weight="400" font-stretch="normal" font-size="55" text-anchor="start" direction="ltr" writing-mode="lr-tb" unicode-bidi="normal" text-decoration="none" transform="matrix(1 0 0 1 3272.19 1385)">-</text><text fill="#000000" fill-opacity="1" font-family="Aptos,Aptos_MSFontService,sans-serif" font-style="normal" font-variant="normal" font-weight="400" font-stretch="normal" font-size="55" text-anchor="start" direction="ltr" writing-mode="lr-tb" unicode-bidi="normal" text-decoration="none" transform="matrix(1 0 0 1 3302.56 1385)">parceria Dra. Rafaella Roque (IFPB) )</text><text fill="#78206E" fill-opacity="1" font-family="Aptos,Aptos_MSFontService,sans-serif" font-style="normal" font-variant="normal" font-weight="700" font-stretch="normal" font-size="64" text-anchor="start" direction="ltr" writing-mode="lr-tb" unicode-bidi="normal" text-decoration="none" transform="matrix(1 0 0 1 2176.04 1141)">Fuzzy</text><text fill="#78206E" fill-opacity="1" font-family="Aptos,Aptos_MSFontService,sans-serif" font-style="normal" font-variant="normal" font-weight="700" font-stretch="normal" font-size="64" text-anchor="start" direction="ltr" writing-mode="lr-tb" unicode-bidi="normal" text-decoration="none" transform="matrix(1 0 0 1 2351.08 1141)">Time </text><text fill="#78206E" fill-opacity="1" font-family="Aptos,Aptos_MSFontService,sans-serif" font-style="normal" font-variant="normal" font-weight="700" font-stretch="normal" font-size="64" text-anchor="start" direction="ltr" writing-mode="lr-tb" unicode-bidi="normal" text-decoration="none" transform="matrix(1 0 0 1 2506.91 1141)">Series </text><text fill="#78206E" fill-opacity="1" font-family="Aptos,Aptos_MSFontService,sans-serif" font-style="normal" font-variant="normal" font-weight="700" font-stretch="normal" font-size="55" text-anchor="start" direction="ltr" writing-mode="lr-tb" unicode-bidi="normal" text-decoration="none" transform="matrix(1 0 0 1 2703.42 1141)">(</text><text fill="#78206E" fill-opacity="1" font-family="Aptos,Aptos_MSFontService,sans-serif" font-style="normal" font-variant="normal" font-weight="700" font-stretch="normal" font-size="55" text-anchor="start" direction="ltr" writing-mode="lr-tb" unicode-bidi="normal" text-decoration="none" transform="matrix(1 0 0 1 2719.46 1141)">Coorientação Mestrado</text><text fill="#78206E" fill-opacity="1" font-family="Aptos,Aptos_MSFontService,sans-serif" font-style="normal" font-variant="normal" font-weight="700" font-stretch="normal" font-size="55" text-anchor="start" direction="ltr" writing-mode="lr-tb" unicode-bidi="normal" text-decoration="none" transform="matrix(1 0 0 1 3318.96 1141)">João </text><text fill="#78206E" fill-opacity="1" font-family="Aptos,Aptos_MSFontService,sans-serif" font-style="normal" font-variant="normal" font-weight="700" font-stretch="normal" font-size="55" text-anchor="start" direction="ltr" writing-mode="lr-tb" unicode-bidi="normal" text-decoration="none" transform="matrix(1 0 0 1 3443.86 1141)">Andrade PPGEC/POLI/</text><text fill="#78206E" fill-opacity="1" font-family="Aptos,Aptos_MSFontService,sans-serif" font-style="normal" font-variant="normal" font-weight="700" font-stretch="normal" font-size="55" text-anchor="start" direction="ltr" writing-mode="lr-tb" unicode-bidi="normal" text-decoration="none" transform="matrix(1 0 0 1 4001.45 1141)">UPE </text><text fill="#78206E" fill-opacity="1" font-family="Aptos,Aptos_MSFontService,sans-serif" font-style="normal" font-variant="normal" font-weight="700" font-stretch="normal" font-size="55" text-anchor="start" direction="ltr" writing-mode="lr-tb" unicode-bidi="normal" text-decoration="none" transform="matrix(1 0 0 1 4116.03 1141)">–</text><text fill="#78206E" fill-opacity="1" font-family="Aptos,Aptos_MSFontService,sans-serif" font-style="normal" font-variant="normal" font-weight="700" font-stretch="normal" font-size="55" text-anchor="start" direction="ltr" writing-mode="lr-tb" unicode-bidi="normal" text-decoration="none" transform="matrix(1 0 0 1 2176.04 1210)">orientação prof. Bruno Fernandes))</text><text fill="#000000" fill-opacity="1" font-family="Aptos,Aptos_MSFontService,sans-serif" font-style="normal" font-variant="normal" font-weight="400" font-stretch="normal" font-size="64" text-anchor="start" direction="ltr" writing-mode="lr-tb" unicode-bidi="normal" text-decoration="none" transform="matrix(1 0 0 1 2174.02 834)">Explicabilidade</text><text fill="#000000" fill-opacity="1" font-family="Aptos,Aptos_MSFontService,sans-serif" font-style="normal" font-variant="normal" font-weight="400" font-stretch="normal" font-size="64" text-anchor="start" direction="ltr" writing-mode="lr-tb" unicode-bidi="normal" text-decoration="none" transform="matrix(1 0 0 1 2611.37 834)">da regressão de séries temperatura utilizando</text><text fill="#000000" fill-opacity="1" font-family="Aptos,Aptos_MSFontService,sans-serif" font-style="normal" font-variant="normal" font-weight="400" font-stretch="normal" font-size="64" text-anchor="start" direction="ltr" writing-mode="lr-tb" unicode-bidi="normal" text-decoration="none" transform="matrix(1 0 0 1 2174.02 911)">ocupação do solo como variáveis exógenas</text><text fill="#000000" fill-opacity="1" font-family="Aptos,Aptos_MSFontService,sans-serif" font-style="normal" font-variant="normal" font-weight="400" font-stretch="normal" font-size="55" text-anchor="start" direction="ltr" writing-mode="lr-tb" unicode-bidi="normal" text-decoration="none" transform="matrix(1 0 0 1 2174.02 980)">[</text><text fill="#000000" fill-opacity="1" font-family="Aptos,Aptos_MSFontService,sans-serif" font-style="normal" font-variant="normal" font-weight="400" font-stretch="normal" font-size="55" text-anchor="start" direction="ltr" writing-mode="lr-tb" unicode-bidi="normal" text-decoration="none" transform="matrix(1 0 0 1 2190.07 980)">parceria </text><text fill="#000000" fill-opacity="1" font-family="Aptos,Aptos_MSFontService,sans-serif" font-style="normal" font-variant="normal" font-weight="400" font-stretch="normal" font-size="55" text-anchor="start" direction="ltr" writing-mode="lr-tb" unicode-bidi="normal" text-decoration="none" transform="matrix(1 0 0 1 2397.85 980)">com prof. </text><text fill="#000000" fill-opacity="1" font-family="Aptos,Aptos_MSFontService,sans-serif" font-style="normal" font-variant="normal" font-weight="400" font-stretch="normal" font-size="55" text-anchor="start" direction="ltr" writing-mode="lr-tb" unicode-bidi="normal" text-decoration="none" transform="matrix(1 0 0 1 2635.52 980)">Teobaldo Júnior (IFPB), prof. Bruno Fernandes (UPE</text><text fill="#000000" fill-opacity="1" font-family="Aptos,Aptos_MSFontService,sans-serif" font-style="normal" font-variant="normal" font-weight="400" font-stretch="normal" font-size="55" text-anchor="start" direction="ltr" writing-mode="lr-tb" unicode-bidi="normal" text-decoration="none" transform="matrix(1 0 0 1 3838.05 980)">/</text><text fill="#000000" fill-opacity="1" font-family="Aptos,Aptos_MSFontService,sans-serif" font-style="normal" font-variant="normal" font-weight="400" font-stretch="normal" font-size="55" text-anchor="start" direction="ltr" writing-mode="lr-tb" unicode-bidi="normal" text-decoration="none" transform="matrix(1 0 0 1 3856.96 980)">POLI), mestrando </text><text fill="#000000" fill-opacity="1" font-family="Aptos,Aptos_MSFontService,sans-serif" font-style="normal" font-variant="normal" font-weight="400" font-stretch="normal" font-size="55" text-anchor="start" direction="ltr" writing-mode="lr-tb" unicode-bidi="normal" text-decoration="none" transform="matrix(1 0 0 1 2174.02 1046)">João Andrade (PPGEC/UPE)]</text><text fill="#000000" fill-opacity="1" font-family="Aptos,Aptos_MSFontService,sans-serif" font-style="normal" font-variant="normal" font-weight="400" font-stretch="normal" font-size="64" text-anchor="start" direction="ltr" writing-mode="lr-tb" unicode-bidi="normal" text-decoration="none" transform="matrix(1 0 0 1 2155.52 633)">Investigações </text><text fill="#000000" fill-opacity="1" font-family="Aptos,Aptos_MSFontService,sans-serif" font-style="normal" font-variant="normal" font-weight="400" font-stretch="normal" font-size="64" text-anchor="start" direction="ltr" writing-mode="lr-tb" unicode-bidi="normal" text-decoration="none" transform="matrix(1 0 0 1 2548.47 633)">sobre </text><text fill="#000000" fill-opacity="1" font-family="Aptos,Aptos_MSFontService,sans-serif" font-style="normal" font-variant="normal" font-weight="400" font-stretch="normal" font-size="64" text-anchor="start" direction="ltr" writing-mode="lr-tb" unicode-bidi="normal" text-decoration="none" transform="matrix(1 0 0 1 2718.33 633)">o </text><text fill="#000000" fill-opacity="1" font-family="Aptos,Aptos_MSFontService,sans-serif" font-style="normal" font-variant="normal" font-weight="400" font-stretch="normal" font-size="64" text-anchor="start" direction="ltr" writing-mode="lr-tb" unicode-bidi="normal" text-decoration="none" transform="matrix(1 0 0 1 2767.02 633)">método GEN </text><text fill="#000000" fill-opacity="1" font-family="Aptos,Aptos_MSFontService,sans-serif" font-style="normal" font-variant="normal" font-weight="400" font-stretch="normal" font-size="64" text-anchor="start" direction="ltr" writing-mode="lr-tb" unicode-bidi="normal" text-decoration="none" transform="matrix(1 0 0 1 3135.66 633)">Self</text><text fill="#000000" fill-opacity="1" font-family="Aptos,Aptos_MSFontService,sans-serif" font-style="normal" font-variant="normal" font-weight="400" font-stretch="normal" font-size="64" text-anchor="start" direction="ltr" writing-mode="lr-tb" unicode-bidi="normal" text-decoration="none" transform="matrix(1 0 0 1 3241.17 633)">-</text><text fill="#000000" fill-opacity="1" font-family="Aptos,Aptos_MSFontService,sans-serif" font-style="normal" font-variant="normal" font-weight="400" font-stretch="normal" font-size="64" text-anchor="start" direction="ltr" writing-mode="lr-tb" unicode-bidi="normal" text-decoration="none" transform="matrix(1 0 0 1 3262.94 633)">labeling</text><text fill="#000000" fill-opacity="1" font-family="Aptos,Aptos_MSFontService,sans-serif" font-style="normal" font-variant="normal" font-weight="400" font-stretch="normal" font-size="55" text-anchor="start" direction="ltr" writing-mode="lr-tb" unicode-bidi="normal" text-decoration="none" transform="matrix(1 0 0 1 2155.52 702)">(continuação doutorado </text><text fill="#000000" fill-opacity="1" font-family="Aptos,Aptos_MSFontService,sans-serif" font-style="normal" font-variant="normal" font-weight="400" font-stretch="normal" font-size="55" text-anchor="start" direction="ltr" writing-mode="lr-tb" unicode-bidi="normal" text-decoration="none" transform="matrix(1 0 0 1 2740.53 702)">-</text><text fill="#000000" fill-opacity="1" font-family="Aptos,Aptos_MSFontService,sans-serif" font-style="normal" font-variant="normal" font-weight="400" font-stretch="normal" font-size="55" text-anchor="start" direction="ltr" writing-mode="lr-tb" unicode-bidi="normal" text-decoration="none" transform="matrix(1 0 0 1 2770.9 702)">projeto a ser iniciado)</text><text fill="#78206E" fill-opacity="1" font-family="Aptos,Aptos_MSFontService,sans-serif" font-style="normal" font-variant="normal" font-weight="700" font-stretch="normal" font-size="64" text-anchor="start" direction="ltr" writing-mode="lr-tb" unicode-bidi="normal" text-decoration="none" transform="matrix(1 0 0 1 2155.52 423)">Efeito do ruído em modelos de Detecção de Objetos</text><text fill="#78206E" fill-opacity="1" font-family="Aptos,Aptos_MSFontService,sans-serif" font-style="normal" font-variant="normal" font-weight="700" font-stretch="normal" font-size="55" text-anchor="start" direction="ltr" writing-mode="lr-tb" unicode-bidi="normal" text-decoration="none" transform="matrix(1 0 0 1 2155.52 492)">(Coorientação </text><text fill="#78206E" fill-opacity="1" font-family="Aptos,Aptos_MSFontService,sans-serif" font-style="normal" font-variant="normal" font-weight="700" font-stretch="normal" font-size="55" text-anchor="start" direction="ltr" writing-mode="lr-tb" unicode-bidi="normal" text-decoration="none" transform="matrix(1 0 0 1 2523.92 492)">mestrado Agostinho Freire PPGEC/POLI/</text><text fill="#78206E" fill-opacity="1" font-family="Aptos,Aptos_MSFontService,sans-serif" font-style="normal" font-variant="normal" font-weight="700" font-stretch="normal" font-size="55" text-anchor="start" direction="ltr" writing-mode="lr-tb" unicode-bidi="normal" text-decoration="none" transform="matrix(1 0 0 1 3530.15 492)">UPE </text><text fill="#78206E" fill-opacity="1" font-family="Aptos,Aptos_MSFontService,sans-serif" font-style="normal" font-variant="normal" font-weight="700" font-stretch="normal" font-size="55" text-anchor="start" direction="ltr" writing-mode="lr-tb" unicode-bidi="normal" text-decoration="none" transform="matrix(1 0 0 1 3644.73 492)">–</text><text fill="#78206E" fill-opacity="1" font-family="Aptos,Aptos_MSFontService,sans-serif" font-style="normal" font-variant="normal" font-weight="700" font-stretch="normal" font-size="55" text-anchor="start" direction="ltr" writing-mode="lr-tb" unicode-bidi="normal" text-decoration="none" transform="matrix(1 0 0 1 3681.4 492)">orientação prof. Bruno </text><text fill="#78206E" fill-opacity="1" font-family="Aptos,Aptos_MSFontService,sans-serif" font-style="normal" font-variant="normal" font-weight="700" font-stretch="normal" font-size="55" text-anchor="start" direction="ltr" writing-mode="lr-tb" unicode-bidi="normal" text-decoration="none" transform="matrix(1 0 0 1 2155.52 558)">Fernandes)</text><text fill="#4EA72E" fill-opacity="1" font-family="Aptos,Aptos_MSFontService,sans-serif" font-style="normal" font-variant="normal" font-weight="700" font-stretch="normal" font-size="64" text-anchor="start" direction="ltr" writing-mode="lr-tb" unicode-bidi="normal" text-decoration="none" transform="matrix(1 0 0 1 2155.52 180)">Qual o ruído em rótulos gerados por humanos</text><text fill="#4EA72E" fill-opacity="1" font-family="Aptos,Aptos_MSFontService,sans-serif" font-style="normal" font-variant="normal" font-weight="700" font-stretch="normal" font-size="64" text-anchor="start" direction="ltr" writing-mode="lr-tb" unicode-bidi="normal" text-decoration="none" transform="matrix(1 0 0 1 2155.52 257)">para detecção de objetos? </text><text fill="#4EA72E" fill-opacity="1" font-family="Aptos,Aptos_MSFontService,sans-serif" font-style="normal" font-variant="normal" font-weight="700" font-stretch="normal" font-size="55" text-anchor="start" direction="ltr" writing-mode="lr-tb" unicode-bidi="normal" text-decoration="none" transform="matrix(1 0 0 1 2936.63 257)">[</text><text fill="#4EA72E" fill-opacity="1" font-family="Aptos,Aptos_MSFontService,sans-serif" font-style="normal" font-variant="normal" font-weight="700" font-stretch="normal" font-size="55" text-anchor="start" direction="ltr" writing-mode="lr-tb" unicode-bidi="normal" text-decoration="none" transform="matrix(1 0 0 1 2954.96 257)">Projeto </text><text fill="#4EA72E" fill-opacity="1" font-family="Aptos,Aptos_MSFontService,sans-serif" font-style="normal" font-variant="normal" font-weight="700" font-stretch="normal" font-size="55" text-anchor="start" direction="ltr" writing-mode="lr-tb" unicode-bidi="normal" text-decoration="none" transform="matrix(1 0 0 1 3146.04 257)">aprovado no edital PIBITI/CNPq</text><text fill="#4EA72E" fill-opacity="1" font-family="Aptos,Aptos_MSFontService,sans-serif" font-style="normal" font-variant="normal" font-weight="700" font-stretch="normal" font-size="55" text-anchor="start" direction="ltr" writing-mode="lr-tb" unicode-bidi="normal" text-decoration="none" transform="matrix(1 0 0 1 2155.52 326)">e em execução </text><text fill="#4EA72E" fill-opacity="1" font-family="Aptos,Aptos_MSFontService,sans-serif" font-style="normal" font-variant="normal" font-weight="700" font-stretch="normal" font-size="55" text-anchor="start" direction="ltr" writing-mode="lr-tb" unicode-bidi="normal" text-decoration="none" transform="matrix(1 0 0 1 2539.92 326)">-</text><text fill="#4EA72E" fill-opacity="1" font-family="Aptos,Aptos_MSFontService,sans-serif" font-style="normal" font-variant="normal" font-weight="700" font-stretch="normal" font-size="55" text-anchor="start" direction="ltr" writing-mode="lr-tb" unicode-bidi="normal" text-decoration="none" transform="matrix(1 0 0 1 2570.28 326)">Daniel dos Santos (bolsista) e Arthur Silva (voluntário</text><text fill="#4EA72E" fill-opacity="1" font-family="Aptos,Aptos_MSFontService,sans-serif" font-style="normal" font-variant="normal" font-weight="700" font-stretch="normal" font-size="55" text-anchor="start" direction="ltr" writing-mode="lr-tb" unicode-bidi="normal" text-decoration="none" transform="matrix(1 0 0 1 3892.07 326)">)]</text><path d="M0.112771-3.43565 10.1538-3.10607 20.2204-2.13532 30.1225-0.570281 39.7854 1.54686 49.1346 4.1748 58.0958 7.27323 66.5947 10.803 74.5575 14.7266 81.9107 19.0085 88.5805 23.6164 94.4924 28.5222 99.5687 33.7041 103.724 39.1462 106.859 44.8364 108.847 50.7518 109.497 56.4325 110.105 61.7528 109.948 61.0484 111.723 66.327 111.475 65.7636 114.337 70.9589 114.058 70.5313 117.93 75.6018 117.653 75.2824 122.458 80.1865 122.197 79.9468 127.856 84.6427 127.615 84.4598 134.051 88.9061 133.827 88.7637 140.962 92.9186 140.751 92.8057 148.508 96.6277 148.307 96.5366 156.608 99.984 156.412 99.9098 165.179 102.941 164.986 102.881 174.141 105.454 173.947 105.405 183.413 107.479 183.059 107.421 189.721 108.165 188.958 114.998 182.117 114.233 172.377 112.1 163.028 109.472 154.067 106.373 145.568 102.843 137.605 98.9199 130.252 94.638 123.582 90.0301 117.67 85.1242 112.594 79.9424 108.439 74.5002 105.304 68.81 103.316 62.8946 102.666 57.2139 102.058 51.8937 102.214 52.5981 100.44 47.3195 100.688 47.8829 97.826 42.6875 98.1049 43.1152 94.233 38.0447 94.5095 38.364 89.7053 33.46 89.9657 33.6997 84.3068 29.0037 84.5481 29.1866 78.1122 24.7404 78.3363 24.8827 71.2012 20.7278 71.4116 20.8408 63.6549 17.0188 63.8558 17.1099 55.5553 13.6625 55.7504 13.7367 46.9837 10.7054 47.1768 10.7659 38.0216 8.1925 38.2161 8.24109 28.7501 6.1671 28.9491 6.20461 19.25 4.67166 19.4567 4.69793 9.60223 3.74764 9.81941 3.76166-0.112771 3.43565ZM186.014 97.4747 212.163 113.646 183.536 124.863Z" fill="#196B24" fill-rule="nonzero" fill-opacity="1" transform="matrix(1 0 0 -1 1910.5 347.146)"/><path d="M1910.62 343.065 1920.67 343.424 1930.76 344.483 1940.68 346.19 1950.35 348.5 1959.72 351.366 1968.69 354.744 1977.2 358.593 1985.17 362.869 1992.52 367.535 1999.19 372.553 2005.1 377.89 2010.16 383.518 2014.29 389.413 2017.4 395.551 2019.36 401.898 2020 408.026 2020.61 413.821 2020.47 413.166 2022.25 418.915 2022.03 418.377 2024.89 424.035 2024.64 423.613 2028.51 429.136 2028.25 428.81 2033.06 434.151 2032.81 433.9 2038.47 439.014 2038.23 438.817 2044.66 443.66 2044.44 443.504 2051.57 448.029 2051.36 447.903 2059.11 452.065 2058.91 451.962 2067.21 455.717 2067 455.632 2075.77 458.933 2075.56 458.863 2084.72 461.666 2084.51 461.609 2093.98 463.868 2093.59 463.799 2100.27 464.613 2099.44 471.437 2092.57 470.6 2082.81 468.271 2073.45 465.405 2064.47 462.026 2055.97 458.178 2048 453.902 2040.64 449.236 2033.97 444.218 2028.07 438.881 2023 433.253 2018.87 427.358 2015.77 421.22 2013.81 414.873 2013.16 408.745 2012.55 402.95 2012.69 403.605 2010.91 397.856 2011.13 398.394 2008.27 392.736 2008.52 393.158 2004.65 387.635 2004.91 387.961 2000.11 382.62 2000.36 382.871 1994.7 377.757 1994.94 377.954 1988.5 373.111 1988.73 373.267 1981.59 368.742 1981.81 368.868 1974.05 364.706 1974.26 364.809 1965.96 361.054 1966.16 361.139 1957.4 357.838 1957.6 357.908 1948.45 355.105 1948.65 355.162 1939.19 352.903 1939.4 352.947 1929.7 351.278 1929.93 351.309 1920.07 350.274 1920.31 350.29 1910.38 349.935ZM2096.64 453.892 2122.66 470.271 2093.95 481.26Z" fill="#196B24" fill-rule="nonzero" fill-opacity="1"/><path d="M0.00229425-3.4375 8.35824-3.43192 16.4561-3.41616 24.0291-3.39165 30.8151-3.35987 36.5526-3.32225 38.9494-3.30168 40.9851-3.28018 42.6394-3.25778 43.8776-3.23452 44.7495-3.20768 45.1083-3.17523 45.3645-3.15212 45.1612-3.1644 45.9104-3.14139 45.8693-3.14241 47.0778-3.11976 47.0599-3.12004 48.695-3.09793 50.7136-3.07666 53.0966-3.05623 58.8206-3.01875 58.8094-3.0188 66.6916-2.99301 66.6691 3.88195 58.7812 3.85614 53.0376 3.81851 50.6411 3.79796 48.602 3.77644 46.958 3.75421 45.7199 3.731 44.8483 3.70423 44.489 3.67182 44.232 3.64857 44.4359 3.66092 43.6866 3.63785 43.7279 3.63888 42.5193 3.61617 42.5373 3.61646 40.9124 3.59443 38.8904 3.57307 36.5076 3.5526 30.7829 3.51505 24.0068 3.48331 16.4427 3.45883 8.35365 3.44308-0.00229425 3.4375ZM62.1281-13.3158 89.5969 0.496227 62.066 14.1841Z" fill="#196B24" fill-rule="nonzero" fill-opacity="1" transform="matrix(1 0 0 -1 2033.5 647.996)"/><text fill="#000000" fill-opacity="1" font-family="Aptos,Aptos_MSFontService,sans-serif" font-style="normal" font-variant="normal" font-weight="400" font-stretch="normal" font-size="64" text-anchor="start" direction="ltr" writing-mode="lr-tb" unicode-bidi="normal" text-decoration="none" transform="matrix(1 0 0 1 2171.74 1495)">Visão computacional para biometria de camarão </text><text fill="#000000" fill-opacity="1" font-family="Aptos,Aptos_MSFontService,sans-serif" font-style="normal" font-variant="normal" font-weight="400" font-stretch="normal" font-size="55" text-anchor="start" direction="ltr" writing-mode="lr-tb" unicode-bidi="normal" text-decoration="none" transform="matrix(1 0 0 1 3535.44 1495)">(parceria prof. Péricles </text><text fill="#000000" fill-opacity="1" font-family="Aptos,Aptos_MSFontService,sans-serif" font-style="normal" font-variant="normal" font-weight="400" font-stretch="normal" font-size="55" text-anchor="start" direction="ltr" writing-mode="lr-tb" unicode-bidi="normal" text-decoration="none" transform="matrix(1 0 0 1 2171.74 1564)">Miranda/UFRPE)</text><path d="M0.0860296-3.43642 14.1975-3.08315 28.2788-2.04749 42.1352-0.377168 55.6597 1.88287 68.7457 4.68831 81.2868 7.99556 93.1771 11.762 104.312 15.9465 114.587 20.5099 123.899 25.4169 132.148 30.638 139.233 36.154 144.993 41.9071 147.421 44.9714 149.442 48.0672 151.07 51.2455 152.274 54.5048 153.022 57.8354 153.258 60.953 153.475 63.8214 153.402 63.3283 154.044 66.1911 153.914 65.752 154.968 68.6036 154.803 68.2284 156.255 71.0632 156.074 70.7511 157.91 73.5634 157.726 73.3076 159.932 76.0919 159.667 75.7946 165.136 81.2568 164.818 80.9765 171.604 86.2594 171.33 86.0672 179.323 91.1258 179.087 90.9893 188.177 95.779 187.97 95.6785 198.047 100.154 197.861 100.078 208.817 104.195 208.646 104.136 220.37 107.85 220.208 107.803 232.59 111.068 232.434 111.031 245.365 113.803 245.211 113.774 258.581 116.008 258.426 115.986 272.125 117.637 271.889 117.617 276.947 117.875 276.596 124.741 271.42 124.477 257.525 122.802 244.001 120.542 230.915 117.737 218.374 114.429 206.483 110.663 195.349 106.478 185.074 101.915 175.761 97.008 167.512 91.7869 160.427 86.271 154.667 80.5179 152.239 77.4536 150.218 74.3578 148.591 71.1796 147.386 67.9203 146.639 64.5897 146.403 61.4721 146.185 58.6037 146.259 59.0968 145.617 56.234 145.746 56.673 144.692 53.8214 144.857 54.1966 143.405 51.3618 143.586 51.6739 141.751 48.8616 141.935 49.1174 139.729 46.333 139.994 46.6303 134.525 41.1681 134.842 41.4484 128.057 36.1655 128.33 36.3577 120.338 31.299 120.574 31.4356 111.484 26.6459 111.691 26.7463 101.613 22.2705 101.799 22.3466 90.8434 18.2294 91.0146 18.2887 79.2909 14.575 79.4524 14.6218 67.0702 11.3565 67.2261 11.3937 54.2952 8.62156 54.4492 8.65092 41.0794 6.41673 41.2345 6.43904 27.5355 4.78768 27.6947 4.80313 13.7762 3.77943 13.9423 3.78762-0.0860296 3.43642ZM272.863 107.352 299.66 122.425 271.523 134.819Z" fill="#196B24" fill-rule="nonzero" fill-opacity="1" transform="matrix(1 0 0 -1 1841.5 1041.92)"/><path d="M1841.58 1039.06 1855.78 1039.39 1869.94 1040.34 1883.87 1041.88 1897.48 1043.96 1910.64 1046.54 1923.25 1049.59 1935.21 1053.05 1946.41 1056.9 1956.74 1061.1 1966.11 1065.62 1974.41 1070.43 1981.54 1075.51 1987.35 1080.82 1989.81 1083.66 1991.86 1086.53 1993.52 1089.5 1994.75 1092.56 1995.52 1095.7 1995.76 1098.61 1995.98 1101.25 1995.9 1100.72 1996.54 1103.36 1996.39 1102.89 1997.45 1105.51 1997.26 1105.12 1998.73 1107.74 1998.53 1107.42 2000.37 1110.01 2000.17 1109.75 2002.39 1112.32 2002.11 1112.03 2007.62 1117.07 2007.3 1116.8 2014.13 1121.67 2013.86 1121.49 2021.9 1126.16 2021.67 1126.03 2030.82 1130.45 2030.62 1130.36 2040.77 1134.48 2040.59 1134.42 2051.62 1138.21 2051.46 1138.16 2063.26 1141.58 2063.11 1141.54 2075.58 1144.55 2075.44 1144.52 2088.45 1147.07 2088.31 1147.05 2101.77 1149.1 2101.63 1149.08 2115.42 1150.61 2115.2 1150.59 2120.45 1150.84 2120.12 1157.7 2114.77 1157.45 2100.8 1155.91 2087.2 1153.83 2074.04 1151.25 2061.43 1148.2 2049.47 1144.74 2038.27 1140.89 2027.94 1136.69 2018.57 1132.17 2010.27 1127.36 2003.14 1122.28 1997.33 1116.97 1994.87 1114.13 1992.82 1111.26 1991.16 1108.29 1989.92 1105.23 1989.15 1102.09 1988.91 1099.18 1988.69 1096.54 1988.78 1097.07 1988.13 1094.43 1988.29 1094.9 1987.22 1092.27 1987.41 1092.67 1985.95 1090.05 1986.15 1090.37 1984.3 1087.78 1984.5 1088.04 1982.28 1085.47 1982.56 1085.76 1977.06 1080.72 1977.38 1080.99 1970.55 1076.12 1970.82 1076.29 1962.78 1071.63 1963.01 1071.76 1953.85 1067.34 1954.05 1067.43 1943.91 1063.31 1944.08 1063.37 1933.05 1059.58 1933.22 1059.63 1921.41 1056.21 1921.56 1056.25 1909.1 1053.24 1909.24 1053.27 1896.22 1050.72 1896.37 1050.74 1882.91 1048.69 1883.05 1048.7 1869.26 1047.18 1869.4 1047.2 1855.39 1046.25 1855.54 1046.26 1841.42 1045.94ZM2116.32 1140.33 2143.18 1155.29 2115.09 1167.8Z" fill="#196B24" fill-rule="nonzero" fill-opacity="1"/><path d="M0.068133-3.43682 12.1576-3.19716 24.2165-2.49483 36.0835-1.36204 47.6671 0.170798 58.8761 2.0737 69.6194 4.31722 79.8068 6.87263 89.3491 9.71234 98.1586 12.8107 106.15 16.1452 113.242 19.6997 119.358 23.47 124.422 27.4751 128.344 31.7756 130.88 36.3339 131.625 38.9615 131.841 41.2186 132.027 43.1654 131.912 42.5553 132.463 44.4984 132.159 43.7641 134.307 47.6235 133.843 46.9786 137.308 50.7772 136.9 50.3974 141.587 54.1047 141.259 53.8747 147.075 57.4603 146.811 57.3133 153.661 60.7467 153.445 60.6474 161.236 63.8982 161.053 63.8278 169.69 66.8657 169.53 66.8138 178.92 69.6081 178.776 69.5686 188.825 72.0892 188.691 72.0585 199.304 74.2747 199.176 74.2506 210.259 76.1322 210.135 76.1134 221.594 77.6298 221.41 77.6104 234.212 78.6069 233.679 85.4612 220.784 84.4575 209.171 82.9207 197.962 81.0178 187.218 78.7743 177.031 76.2189 167.489 73.3792 158.679 70.2808 150.687 66.9463 143.595 63.3918 137.48 59.6215 132.416 55.6164 128.494 51.3159 125.957 46.7576 125.213 44.13 124.997 41.8729 124.811 39.9261 124.925 40.5362 124.375 38.5931 124.678 39.3274 122.531 35.468 122.995 36.1129 119.53 32.3143 119.938 32.694 115.25 28.9868 115.579 29.2168 109.763 25.6312 110.027 25.7782 103.176 22.3448 103.393 22.4441 95.6018 19.1933 95.785 19.2637 87.1475 16.2258 87.3075 16.2778 77.9175 13.4834 78.0616 13.5229 68.0132 11.0023 68.1469 11.033 57.5341 8.81678 57.6615 8.84088 46.5785 6.95935 46.7029 6.97813 35.2436 5.46175 35.3679 5.4759 23.6265 4.3551 23.7533 4.36484 11.8237 3.67005 11.9555 3.67519-0.068133 3.43682ZM230.001 68.0872 256.838 83.0915 228.733 95.5579Z" fill="#196B24" fill-rule="nonzero" fill-opacity="1" transform="matrix(1 0 0 -1 1884.5 1410.59)"/><path d="M1884.58 1407.06 1896.58 1407.35 1908.56 1408.19 1920.34 1409.54 1931.85 1411.36 1942.98 1413.63 1953.65 1416.31 1963.77 1419.35 1973.25 1422.74 1982 1426.44 1989.94 1430.41 1996.99 1434.65 2003.05 1439.14 2008.05 1443.89 2011.88 1448.92 2014.36 1454.29 2015.17 1459.39 2015.9 1464.02 2015.62 1463.11 2017.75 1467.7 2017.37 1467.07 2020.8 1471.59 2020.43 1471.17 2025.08 1475.58 2024.76 1475.31 2030.52 1479.58 2030.25 1479.4 2037.04 1483.48 2036.81 1483.35 2044.53 1487.22 2044.32 1487.13 2052.88 1490.74 2052.7 1490.67 2062.01 1494 2061.85 1493.94 2071.8 1496.94 2071.65 1496.9 2082.17 1499.53 2082.02 1499.5 2093 1501.74 2092.85 1501.71 2104.21 1503.52 2103.99 1503.49 2116.49 1504.65 2115.85 1511.5 2103.24 1510.32 2091.7 1508.49 2080.57 1506.22 2069.9 1503.55 2059.78 1500.5 2050.3 1497.11 2041.55 1493.42 2033.61 1489.44 2026.56 1485.2 2020.5 1480.71 2015.5 1475.97 2011.67 1470.93 2009.18 1465.56 2008.38 1460.46 2007.65 1455.84 2007.93 1456.75 2005.8 1452.15 2006.18 1452.79 2002.75 1448.27 2003.12 1448.68 1998.47 1444.27 1998.79 1444.54 1993.03 1440.28 1993.3 1440.46 1986.51 1436.37 1986.74 1436.5 1979.02 1432.63 1979.22 1432.73 1970.66 1429.11 1970.84 1429.18 1961.54 1425.86 1961.7 1425.91 1951.74 1422.91 1951.9 1422.96 1941.38 1420.32 1941.53 1420.35 1930.55 1418.12 1930.69 1418.14 1919.34 1416.34 1919.49 1416.36 1907.85 1415.03 1908 1415.04 1896.18 1414.21 1896.33 1414.22 1884.42 1413.94ZM2112.36 1494.09 2139.05 1509.35 2110.82 1521.55Z" fill="#196B24" fill-rule="nonzero" fill-opacity="1"/><path d="M1878.5 1705.06 1903.07 1705.07 1915.11 1705.09 1926.86 1705.11 1938.23 1705.13 1949.11 1705.16 1959.42 1705.19 1969.05 1705.23 1977.91 1705.27 1985.91 1705.31 1992.93 1705.36 1998.9 1705.4 2003.72 1705.45 2007.3 1705.5 2009.55 1705.55 2010.31 1705.59 2010.64 1705.63 2010.84 1705.66 2010.54 1705.63 2011.1 1705.66 2011.03 1705.65 2013.23 1705.7 2013.2 1705.7 2016.75 1705.75 2016.74 1705.75 2021.55 1705.8 2027.5 1705.85 2034.52 1705.89 2042.51 1705.93 2051.36 1705.97 2060.99 1706.01 2071.29 1706.04 2082.18 1706.07 2093.54 1706.09 2105.29 1706.11 2118.98 1706.13 2118.97 1713 2105.28 1712.99 2093.52 1712.97 2082.16 1712.94 2071.27 1712.92 2060.97 1712.88 2051.33 1712.85 2042.47 1712.81 2034.48 1712.77 2027.45 1712.72 2021.48 1712.67 2016.66 1712.63 2013.09 1712.58 2010.83 1712.52 2010.08 1712.49 2009.74 1712.45 2009.55 1712.42 2009.85 1712.45 2009.29 1712.42 2009.36 1712.42 2007.16 1712.37 2007.19 1712.38 2003.64 1712.33 2003.65 1712.33 1998.85 1712.28 1992.89 1712.23 1985.87 1712.19 1977.88 1712.15 1969.03 1712.11 1959.4 1712.07 1949.1 1712.04 1938.21 1712.01 1926.85 1711.98 1915.1 1711.96 1903.06 1711.95 1878.5 1711.94ZM2114.4 1695.81 2141.89 1709.58 2114.38 1723.31Z" fill="#196B24" fill-rule="nonzero" fill-opacity="1"/><path d="M1894.5 1895.06 1917.73 1895.07 1940.22 1895.08 1950.97 1895.08 1961.26 1895.09 1971.01 1895.1 1980.11 1895.12 1988.49 1895.13 1996.05 1895.14 2002.69 1895.15 2008.33 1895.17 2012.88 1895.18 2016.24 1895.2 2018.36 1895.22 2019.1 1895.23 2019.81 1895.25 2019.76 1895.25 2021.85 1895.26 2025.19 1895.28 2029.74 1895.29 2035.37 1895.31 2042.01 1895.32 2049.57 1895.34 2057.94 1895.35 2067.05 1895.36 2076.79 1895.37 2087.08 1895.38 2097.82 1895.39 2120.63 1895.4 2120.63 1902.27 2097.82 1902.26 2087.07 1902.25 2076.78 1902.24 2067.04 1902.23 2057.93 1902.22 2049.55 1902.21 2042 1902.2 2035.35 1902.18 2029.71 1902.17 2025.16 1902.15 2021.79 1902.14 2019.69 1902.12 2018.95 1902.11 2018.23 1902.09 2018.28 1902.09 2016.21 1902.08 2012.86 1902.06 2008.31 1902.04 2002.68 1902.03 1996.03 1902.02 1988.48 1902 1980.11 1901.99 1971 1901.98 1961.26 1901.97 1950.97 1901.96 1940.22 1901.95 1917.73 1901.94 1894.5 1901.94ZM2116.05 1885.08 2143.55 1898.84 2116.04 1912.58Z" fill="#196B24" fill-rule="nonzero" fill-opacity="1"/></g></g></svg>